<svg width="500" height="300" viewBox="0 0 500 300" fill="none" xmlns="http://www.w3.org/2000/svg">
  <!-- Background elements -->
  <circle cx="250" cy="150" r="120" fill="#F5F7FA" opacity="0.6"/>
  <circle cx="350" cy="80" r="30" fill="#E1EBFF" opacity="0.8"/>
  <circle cx="150" cy="220" r="40" fill="#E1EBFF" opacity="0.8"/>
  
  <!-- People helping each other -->
  <g transform="translate(180, 100)">
    <!-- First person -->
    <circle cx="30" cy="30" r="25" fill="#4A6FFF"/>
    <circle cx="30" cy="30" r="20" fill="#6A89FF"/>
    <path d="M20 40 Q30 50 40 40" stroke="white" stroke-width="2" fill="none"/>
    <circle cx="22" cy="25" r="3" fill="white"/>
    <circle cx="38" cy="25" r="3" fill="white"/>
    
    <!-- Arms reaching out -->
    <path d="M55 30 Q70 20 85 30" stroke="#4A6FFF" stroke-width="8" stroke-linecap="round"/>
    <path d="M85 30 Q70 40 55 30" stroke="#FF7E67" stroke-width="8" stroke-linecap="round"/>
    
    <!-- Second person -->
    <circle cx="110" cy="30" r="25" fill="#FF5A5F"/>
    <circle cx="110" cy="30" r="20" fill="#FF7E67"/>
    <path d="M100 40 Q110 50 120 40" stroke="white" stroke-width="2" fill="none"/>
    <circle cx="102" cy="25" r="3" fill="white"/>
    <circle cx="118" cy="25" r="3" fill="white"/>
  </g>
  
  <!-- House/shelter symbol -->
  <g transform="translate(220, 40)">
    <path d="M30 0 L60 25 L60 60 L0 60 L0 25 Z" fill="#4A6FFF"/>
    <path d="M20 60 L20 40 L40 40 L40 60" fill="white"/>
    <path d="M30 0 L60 25 L0 25 L30 0 Z" fill="#6A89FF"/>
  </g>
  
  <!-- Heart symbol -->
  <g transform="translate(120, 60)">
    <path d="M20,10 a10,10 0 0,1 20,0 a10,10 0 0,1 0,20 L20,50 L0,30 a10,10 0 0,1 0,-20 a10,10 0 0,1 20,0 Z" fill="#FF5A5F"/>
  </g>
  
  <!-- Medical cross symbol -->
  <g transform="translate(320, 180)">
    <rect x="15" y="0" width="10" height="40" fill="#FF5A5F"/>
    <rect x="0" y="15" width="40" height="10" fill="#FF5A5F"/>
  </g>
  
  <!-- Decorative elements -->
  <circle cx="100" cy="100" r="5" fill="#4A6FFF"/>
  <circle cx="400" cy="150" r="5" fill="#FF5A5F"/>
  <circle cx="150" cy="50" r="3" fill="#4A6FFF"/>
  <circle cx="350" cy="250" r="3" fill="#FF5A5F"/>
  <circle cx="250" cy="280" r="4" fill="#4A6FFF"/>
  
  <!-- Dotted lines -->
  <path d="M100 100 Q175 75 250 150" stroke="#4A6FFF" stroke-width="2" stroke-dasharray="5,5" fill="none"/>
  <path d="M400 150 Q325 200 250 150" stroke="#FF5A5F" stroke-width="2" stroke-dasharray="5,5" fill="none"/>
</svg> 